<svg xmlns="http://www.w3.org/2000/svg"
width="1200" height="700" viewBox="0 0 1200 700">

<defs>

<linearGradient id="bg" x1="0" y1="0" x2="1200" y2="700"
gradientUnits="userSpaceOnUse">
<stop stop-color="#05080F"/>
<stop offset=".52" stop-color="#091421"/>
<stop offset="1" stop-color="#04070C"/>
</linearGradient>

<linearGradient id="accent" x1="0" y1="0" x2="1200" y2="0">
<stop stop-color="#00E5FF"/>
<stop offset=".5" stop-color="#1683FF"/>
<stop offset="1" stop-color="#5D63FF"/>
</linearGradient>

<pattern id="grid" width="34" height="34"
patternUnits="userSpaceOnUse">
<path d="M34 0H0V34"
stroke="#5CA8FF"
stroke-opacity=".022"/>
</pattern>

</defs>

<rect width="1200" height="700" rx="26"
fill="url(#bg)"/>

<rect width="1200" height="700" rx="26"
fill="url(#grid)"/>

<path d="M28 70V28H70
M1130 28H1172V70
M28 630V672H70
M1130 672H1172V630"
fill="none"
stroke="url(#accent)"
stroke-width="1.7"/>

<text x="54" y="56"
fill="#57DFFF"
font-family="Arial"
font-size="11"
font-weight="700"
letter-spacing="3">
ALTIXDEV / DEVELOPMENT PULSE
</text>

<text x="54" y="103"
fill="#F4F8FC"
font-family="Arial"
font-size="31"
font-weight="800">
LINGUAGENS MAIS USADAS NO MÊS
</text>

<text x="54" y="130"
fill="#8EA2B9"
font-family="Arial"
font-size="13">
Participação percentual da sua atividade de código • 09/2026
</text>

<text x="1146" y="56"
fill="#57E1FF"
font-family="monospace"
font-size="10"
font-weight="700"
text-anchor="end">
LIVE / MONTHLY
</text>

<g>
<circle cx="295" cy="350" r="177" fill="#07111D" stroke="#17324D"/>
<circle cx="295" cy="350" r="132" fill="none" stroke="#0C223B" stroke-width="36"/>
<circle cx="295" cy="350" r="132"
fill="none" stroke="#00E5FF" stroke-width="36" stroke-linecap="butt"
stroke-dasharray="829.38 0.00"
stroke-dashoffset="-0.00"
transform="rotate(-90 295 350)"/>
<circle cx="295" cy="350" r="95" fill="#050C15" stroke="#17344F"/>
<text x="295" y="335" text-anchor="middle" fill="#57E1FF"
font-family="monospace" font-size="10" font-weight="700">TOP LANGUAGE</text>
<text x="295" y="370" text-anchor="middle" fill="#F4F8FC"
font-family="Arial" font-size="25" font-weight="800">Python</text>
<text x="295" y="397" text-anchor="middle" fill="#71869F"
font-family="Arial" font-size="11">100.0%</text>
</g>

<g>
<text x="535" y="184" fill="#57DFFF" font-family="Arial"
font-size="11" font-weight="700" letter-spacing="3">
RANKING / PARTICIPAÇÃO
</text>
<text x="535" y="209" fill="#8EA2B9" font-family="Arial" font-size="13">
Percentual da atividade por linguagem
</text>
<g>
<circle cx="547" cy="185" r="5" fill="#00E5FF"/>
<text x="565" y="190" fill="#E6EDF5"
font-family="Arial" font-size="14" font-weight="700">Python</text>
<text x="1060" y="190" text-anchor="end" fill="#F7FBFF"
font-family="monospace" font-size="14" font-weight="800">100.0%</text>
<rect x="565" y="204" width="496" height="9" rx="4.5" fill="#0C2440"/>
<rect x="565" y="204" width="496.00" height="9" rx="4.5" fill="#00E5FF"/>
</g>
</g>

<rect x="540" y="492"
width="520" height="82"
rx="18"
fill="#07111D"
stroke="#18344F"/>

<text x="566" y="520"
fill="#57E1FF"
font-family="monospace"
font-size="10"
font-weight="700">
MÉTRICA
</text>

<text x="566" y="545"
fill="#E6EDF5"
font-family="Arial"
font-size="12"
font-weight="700">
Linhas adicionadas + removidas nos commits do mês
</text>

<text x="566" y="563"
fill="#71869F"
font-family="Arial"
font-size="10">
27 commits • 1 repositórios com atividade • 39 analisados
</text>

<text x="54" y="620"
fill="#71869F"
font-family="Arial"
font-size="10">
1491 linhas alteradas • ranking por participação percentual
</text>

<text x="1146" y="620"
fill="#57E1FF"
font-family="monospace"
font-size="10"
font-weight="700"
text-anchor="end">
GITHUB ACTIONS
</text>

<line x1="54" y1="635"
x2="1146" y2="635"
stroke="#17334F"/>

<text x="54" y="657"
fill="#71869F"
font-family="Arial"
font-size="10">
Atualizado automaticamente pelo workflow.
</text>

</svg>